<mxfile host="Electron" modified="2024-04-12T13:12:02.208Z" agent="Mozilla/5.0 (X11; Linux x86_64) AppleWebKit/537.36 (KHTML, like Gecko) draw.io/22.1.18 Chrome/120.0.6099.199 Electron/28.1.2 Safari/537.36" etag="nX4fiQGOKwMcUg22n5dZ" version="22.1.18" type="device">
  <diagram id="cUzzhD7644GESxjVP13l" name="Page-1">
    <mxGraphModel dx="1434" dy="839" grid="1" gridSize="10" guides="1" tooltips="1" connect="1" arrows="1" fold="1" page="1" pageScale="1" pageWidth="1169" pageHeight="1654" math="0" shadow="0">
      <root>
        <mxCell id="0" />
        <mxCell id="1" parent="0" />
        <mxCell id="TbIErf9bOkWsQucBhSrm-29" style="edgeStyle=orthogonalEdgeStyle;rounded=0;orthogonalLoop=1;jettySize=auto;html=1;exitX=0.5;exitY=1;exitDx=0;exitDy=0;" parent="1" source="TbIErf9bOkWsQucBhSrm-1" target="TbIErf9bOkWsQucBhSrm-2" edge="1">
          <mxGeometry relative="1" as="geometry" />
        </mxCell>
        <mxCell id="TbIErf9bOkWsQucBhSrm-30" style="edgeStyle=orthogonalEdgeStyle;rounded=0;orthogonalLoop=1;jettySize=auto;html=1;exitX=0.5;exitY=1;exitDx=0;exitDy=0;entryX=0.5;entryY=0;entryDx=0;entryDy=0;" parent="1" source="TbIErf9bOkWsQucBhSrm-1" target="TbIErf9bOkWsQucBhSrm-3" edge="1">
          <mxGeometry relative="1" as="geometry" />
        </mxCell>
        <mxCell id="TbIErf9bOkWsQucBhSrm-31" style="edgeStyle=orthogonalEdgeStyle;rounded=0;orthogonalLoop=1;jettySize=auto;html=1;exitX=0.5;exitY=1;exitDx=0;exitDy=0;" parent="1" source="TbIErf9bOkWsQucBhSrm-1" target="TbIErf9bOkWsQucBhSrm-4" edge="1">
          <mxGeometry relative="1" as="geometry" />
        </mxCell>
        <mxCell id="TbIErf9bOkWsQucBhSrm-32" style="edgeStyle=orthogonalEdgeStyle;rounded=0;orthogonalLoop=1;jettySize=auto;html=1;exitX=0.5;exitY=1;exitDx=0;exitDy=0;entryX=0.5;entryY=0;entryDx=0;entryDy=0;" parent="1" source="TbIErf9bOkWsQucBhSrm-1" target="TbIErf9bOkWsQucBhSrm-5" edge="1">
          <mxGeometry relative="1" as="geometry" />
        </mxCell>
        <mxCell id="TbIErf9bOkWsQucBhSrm-1" value="Главная страница" style="rounded=0;whiteSpace=wrap;html=1;" parent="1" vertex="1">
          <mxGeometry x="320" y="20" width="160" height="40" as="geometry" />
        </mxCell>
        <mxCell id="TbIErf9bOkWsQucBhSrm-2" value="Страница с общей информация о парикмахерской" style="rounded=0;whiteSpace=wrap;html=1;" parent="1" vertex="1">
          <mxGeometry x="120" y="110" width="130" height="50" as="geometry" />
        </mxCell>
        <mxCell id="TbIErf9bOkWsQucBhSrm-3" value="Страница с информацией об услугах и ценах на них" style="rounded=0;whiteSpace=wrap;html=1;" parent="1" vertex="1">
          <mxGeometry x="270" y="110" width="140" height="50" as="geometry" />
        </mxCell>
        <mxCell id="TbIErf9bOkWsQucBhSrm-4" value="Форма регистрации клиента в веб-приложении" style="rounded=0;whiteSpace=wrap;html=1;" parent="1" vertex="1">
          <mxGeometry x="430" y="110" width="120" height="50" as="geometry" />
        </mxCell>
        <mxCell id="TbIErf9bOkWsQucBhSrm-33" style="edgeStyle=orthogonalEdgeStyle;rounded=0;orthogonalLoop=1;jettySize=auto;html=1;exitX=0.5;exitY=1;exitDx=0;exitDy=0;entryX=0.5;entryY=0;entryDx=0;entryDy=0;" parent="1" source="TbIErf9bOkWsQucBhSrm-5" target="TbIErf9bOkWsQucBhSrm-6" edge="1">
          <mxGeometry relative="1" as="geometry" />
        </mxCell>
        <mxCell id="cPYBdC3_Eq5KNvsTnv2s-9" style="edgeStyle=orthogonalEdgeStyle;rounded=0;orthogonalLoop=1;jettySize=auto;html=1;exitX=0.5;exitY=1;exitDx=0;exitDy=0;" parent="1" source="TbIErf9bOkWsQucBhSrm-5" target="TbIErf9bOkWsQucBhSrm-8" edge="1">
          <mxGeometry relative="1" as="geometry" />
        </mxCell>
        <mxCell id="cPYBdC3_Eq5KNvsTnv2s-10" style="edgeStyle=orthogonalEdgeStyle;rounded=0;orthogonalLoop=1;jettySize=auto;html=1;exitX=0.5;exitY=1;exitDx=0;exitDy=0;" parent="1" source="TbIErf9bOkWsQucBhSrm-5" target="TbIErf9bOkWsQucBhSrm-7" edge="1">
          <mxGeometry relative="1" as="geometry" />
        </mxCell>
        <mxCell id="TbIErf9bOkWsQucBhSrm-5" value="Форма авторизации" style="rounded=0;whiteSpace=wrap;html=1;" parent="1" vertex="1">
          <mxGeometry x="570" y="110" width="80" height="50" as="geometry" />
        </mxCell>
        <mxCell id="TbIErf9bOkWsQucBhSrm-27" style="edgeStyle=orthogonalEdgeStyle;rounded=0;orthogonalLoop=1;jettySize=auto;html=1;exitX=0.5;exitY=1;exitDx=0;exitDy=0;entryX=0.5;entryY=0;entryDx=0;entryDy=0;" parent="1" source="TbIErf9bOkWsQucBhSrm-6" target="TbIErf9bOkWsQucBhSrm-9" edge="1">
          <mxGeometry relative="1" as="geometry" />
        </mxCell>
        <mxCell id="TbIErf9bOkWsQucBhSrm-6" value="Личный кабинет клиента" style="rounded=0;whiteSpace=wrap;html=1;" parent="1" vertex="1">
          <mxGeometry x="120" y="200" width="100" height="40" as="geometry" />
        </mxCell>
        <mxCell id="Fhv-Y79BDDpGti8ulyJx-7" style="edgeStyle=orthogonalEdgeStyle;rounded=0;orthogonalLoop=1;jettySize=auto;html=1;exitX=0.75;exitY=1;exitDx=0;exitDy=0;entryX=1;entryY=0.5;entryDx=0;entryDy=0;" edge="1" parent="1" source="TbIErf9bOkWsQucBhSrm-7" target="TbIErf9bOkWsQucBhSrm-11">
          <mxGeometry relative="1" as="geometry" />
        </mxCell>
        <mxCell id="Fhv-Y79BDDpGti8ulyJx-8" style="edgeStyle=orthogonalEdgeStyle;rounded=0;orthogonalLoop=1;jettySize=auto;html=1;exitX=0.75;exitY=1;exitDx=0;exitDy=0;entryX=1;entryY=0.5;entryDx=0;entryDy=0;" edge="1" parent="1" source="TbIErf9bOkWsQucBhSrm-7" target="Fhv-Y79BDDpGti8ulyJx-6">
          <mxGeometry relative="1" as="geometry" />
        </mxCell>
        <mxCell id="TbIErf9bOkWsQucBhSrm-7" value="Личный кабинет паркмахера" style="rounded=0;whiteSpace=wrap;html=1;" parent="1" vertex="1">
          <mxGeometry x="560" y="200" width="100" height="40" as="geometry" />
        </mxCell>
        <mxCell id="Fhv-Y79BDDpGti8ulyJx-3" style="edgeStyle=orthogonalEdgeStyle;rounded=0;orthogonalLoop=1;jettySize=auto;html=1;exitX=0.25;exitY=1;exitDx=0;exitDy=0;entryX=1;entryY=0.5;entryDx=0;entryDy=0;" edge="1" parent="1" source="TbIErf9bOkWsQucBhSrm-8" target="TbIErf9bOkWsQucBhSrm-15">
          <mxGeometry relative="1" as="geometry" />
        </mxCell>
        <mxCell id="Fhv-Y79BDDpGti8ulyJx-4" style="edgeStyle=orthogonalEdgeStyle;rounded=0;orthogonalLoop=1;jettySize=auto;html=1;exitX=0.25;exitY=1;exitDx=0;exitDy=0;entryX=1;entryY=0.5;entryDx=0;entryDy=0;" edge="1" parent="1" source="TbIErf9bOkWsQucBhSrm-8" target="TbIErf9bOkWsQucBhSrm-16">
          <mxGeometry relative="1" as="geometry" />
        </mxCell>
        <mxCell id="Fhv-Y79BDDpGti8ulyJx-5" style="edgeStyle=orthogonalEdgeStyle;rounded=0;orthogonalLoop=1;jettySize=auto;html=1;exitX=0.25;exitY=1;exitDx=0;exitDy=0;entryX=1;entryY=0.5;entryDx=0;entryDy=0;" edge="1" parent="1" source="TbIErf9bOkWsQucBhSrm-8" target="TbIErf9bOkWsQucBhSrm-17">
          <mxGeometry relative="1" as="geometry" />
        </mxCell>
        <mxCell id="Fhv-Y79BDDpGti8ulyJx-9" style="edgeStyle=orthogonalEdgeStyle;rounded=0;orthogonalLoop=1;jettySize=auto;html=1;exitX=0.5;exitY=1;exitDx=0;exitDy=0;entryX=0;entryY=0.5;entryDx=0;entryDy=0;" edge="1" parent="1" source="TbIErf9bOkWsQucBhSrm-8" target="TbIErf9bOkWsQucBhSrm-11">
          <mxGeometry relative="1" as="geometry" />
        </mxCell>
        <mxCell id="Fhv-Y79BDDpGti8ulyJx-10" style="edgeStyle=orthogonalEdgeStyle;rounded=0;orthogonalLoop=1;jettySize=auto;html=1;exitX=0.5;exitY=1;exitDx=0;exitDy=0;entryX=0;entryY=0.5;entryDx=0;entryDy=0;" edge="1" parent="1" source="TbIErf9bOkWsQucBhSrm-8" target="Fhv-Y79BDDpGti8ulyJx-6">
          <mxGeometry relative="1" as="geometry" />
        </mxCell>
        <mxCell id="TbIErf9bOkWsQucBhSrm-8" value="Личный кабинет руководителя" style="rounded=0;whiteSpace=wrap;html=1;" parent="1" vertex="1">
          <mxGeometry x="420" y="200" width="120" height="40" as="geometry" />
        </mxCell>
        <mxCell id="Fhv-Y79BDDpGti8ulyJx-1" style="edgeStyle=orthogonalEdgeStyle;rounded=0;orthogonalLoop=1;jettySize=auto;html=1;exitX=0.25;exitY=1;exitDx=0;exitDy=0;entryX=0;entryY=0.5;entryDx=0;entryDy=0;" edge="1" parent="1" source="TbIErf9bOkWsQucBhSrm-9" target="TbIErf9bOkWsQucBhSrm-10">
          <mxGeometry relative="1" as="geometry" />
        </mxCell>
        <mxCell id="Fhv-Y79BDDpGti8ulyJx-2" style="edgeStyle=orthogonalEdgeStyle;rounded=0;orthogonalLoop=1;jettySize=auto;html=1;exitX=0.25;exitY=1;exitDx=0;exitDy=0;entryX=0;entryY=0.5;entryDx=0;entryDy=0;" edge="1" parent="1" source="TbIErf9bOkWsQucBhSrm-9" target="cPYBdC3_Eq5KNvsTnv2s-1">
          <mxGeometry relative="1" as="geometry" />
        </mxCell>
        <mxCell id="TbIErf9bOkWsQucBhSrm-9" value="Форма записи на прием" style="rounded=0;whiteSpace=wrap;html=1;" parent="1" vertex="1">
          <mxGeometry x="120" y="260" width="100" height="50" as="geometry" />
        </mxCell>
        <mxCell id="TbIErf9bOkWsQucBhSrm-10" value="Экспорт записей в файл" style="rounded=0;whiteSpace=wrap;html=1;" parent="1" vertex="1">
          <mxGeometry x="180" y="330" width="100" height="50" as="geometry" />
        </mxCell>
        <mxCell id="TbIErf9bOkWsQucBhSrm-11" value="Форма записи клиента на прием" style="rounded=0;whiteSpace=wrap;html=1;" parent="1" vertex="1">
          <mxGeometry x="500" y="280" width="110" height="40" as="geometry" />
        </mxCell>
        <mxCell id="TbIErf9bOkWsQucBhSrm-12" value="Форма редактирования записи" style="rounded=0;whiteSpace=wrap;html=1;" parent="1" vertex="1">
          <mxGeometry x="550" y="420" width="110" height="50" as="geometry" />
        </mxCell>
        <mxCell id="TbIErf9bOkWsQucBhSrm-13" value="Экспорт записей в файл" style="rounded=0;whiteSpace=wrap;html=1;" parent="1" vertex="1">
          <mxGeometry x="550" y="490" width="110" height="40" as="geometry" />
        </mxCell>
        <mxCell id="TbIErf9bOkWsQucBhSrm-15" value="Форма управления операторами" style="rounded=0;whiteSpace=wrap;html=1;" parent="1" vertex="1">
          <mxGeometry x="320" y="260" width="110" height="50" as="geometry" />
        </mxCell>
        <mxCell id="TbIErf9bOkWsQucBhSrm-16" value="Форма регистрации нового оператора" style="rounded=0;whiteSpace=wrap;html=1;" parent="1" vertex="1">
          <mxGeometry x="320" y="330" width="110" height="50" as="geometry" />
        </mxCell>
        <mxCell id="TbIErf9bOkWsQucBhSrm-17" value="Форма редактирования оператора" style="rounded=0;whiteSpace=wrap;html=1;" parent="1" vertex="1">
          <mxGeometry x="320" y="400" width="110" height="50" as="geometry" />
        </mxCell>
        <mxCell id="cPYBdC3_Eq5KNvsTnv2s-1" value="Редактирование своей записи на прием" style="rounded=0;whiteSpace=wrap;html=1;" parent="1" vertex="1">
          <mxGeometry x="180" y="400" width="100" height="50" as="geometry" />
        </mxCell>
        <mxCell id="Fhv-Y79BDDpGti8ulyJx-11" style="edgeStyle=orthogonalEdgeStyle;rounded=0;orthogonalLoop=1;jettySize=auto;html=1;exitX=0.25;exitY=1;exitDx=0;exitDy=0;entryX=0;entryY=0.5;entryDx=0;entryDy=0;" edge="1" parent="1" source="Fhv-Y79BDDpGti8ulyJx-6" target="TbIErf9bOkWsQucBhSrm-12">
          <mxGeometry relative="1" as="geometry" />
        </mxCell>
        <mxCell id="Fhv-Y79BDDpGti8ulyJx-12" style="edgeStyle=orthogonalEdgeStyle;rounded=0;orthogonalLoop=1;jettySize=auto;html=1;exitX=0.25;exitY=1;exitDx=0;exitDy=0;entryX=0;entryY=0.5;entryDx=0;entryDy=0;" edge="1" parent="1" source="Fhv-Y79BDDpGti8ulyJx-6" target="TbIErf9bOkWsQucBhSrm-13">
          <mxGeometry relative="1" as="geometry" />
        </mxCell>
        <mxCell id="Fhv-Y79BDDpGti8ulyJx-6" value="Форма фильтрации записей" style="rounded=0;whiteSpace=wrap;html=1;" vertex="1" parent="1">
          <mxGeometry x="500" y="350" width="110" height="50" as="geometry" />
        </mxCell>
      </root>
    </mxGraphModel>
  </diagram>
</mxfile>
